<svg xmlns="http://www.w3.org/2000/svg" viewBox="0 0 512 512">
  <defs>
    <linearGradient id="g" x1="0" x2="1" y1="0" y2="1">
      <stop stop-color="#0f7b63"/>
      <stop offset="1" stop-color="#d8953f"/>
    </linearGradient>
  </defs>
  <rect width="512" height="512" rx="116" fill="#fff6df"/>
  <circle cx="388" cy="114" r="116" fill="#d8eee8"/>
  <path fill="url(#g)" d="M116 116h280a36 36 0 0 1 36 36v236a36 36 0 0 1-36 36H116a36 36 0 0 1-36-36V152a36 36 0 0 1 36-36Zm0 96h280v-60H116v60Zm42 68h70v58h-70v-58Zm112 0h84v58h-84v-58Zm-112 92h196v28H158v-28Z"/>
</svg>
